<?xml version="1.0" encoding="UTF-8" standalone="no"?><svg xmlns="http://www.w3.org/2000/svg" xmlns:xlink="http://www.w3.org/1999/xlink" clip-rule="evenodd" stroke-miterlimit="10" viewBox="0 0 934 60"><desc>SVG generated by Keynote</desc><defs></defs><g transform="matrix(1.00, 0.00, -0.00, -1.00, 0.0, 60.0)"><image xlink:href="AE3FC34B249D2631F275966158AB0022.png" width="325.00" height="43.00" transform="matrix(1.00, 0.00, -0.00, -1.00, 24.0, 46.0)"></image><g><clipPath id="clip0x600004cbfd40"><path d="M -5.3 -8.3 L 381.4 -8.3 L 381.4 65.2 L -5.3 65.2 Z M -5.3 -8.3 "></path></clipPath><g clip-path="url(#clip0x600004cbfd40)"><text xml:space="preserve" font-family="Helvetica-Light,Helvetica" font-size="41.0" fill="#FEFFFF" transform="matrix(1.00, 0.00, -0.00, -1.00, 24.9, 14.7)">f</text><text xml:space="preserve" font-family="Helvetica-Light,Helvetica" font-size="41.0" fill="#FEFFFF" transform="matrix(1.00, 0.00, -0.00, -1.00, 36.3, 14.7)">d</text><text xml:space="preserve" font-family="Helvetica-Light,Helvetica" font-size="41.0" fill="#FEFFFF" transform="matrix(1.00, 0.00, -0.00, -1.00, 61.4, 14.7)">p</text><text xml:space="preserve" font-family="Helvetica-Light,Helvetica" font-size="41.0" fill="#FEFFFF" transform="matrix(1.00, 0.00, -0.00, -1.00, 86.4, 14.7)">.</text><text xml:space="preserve" font-family="Helvetica-Light,Helvetica" font-size="41.0" fill="#FEFFFF" transform="matrix(1.00, 0.00, -0.00, -1.00, 97.8, 14.7)">e</text><text xml:space="preserve" font-family="Helvetica-Light,Helvetica" font-size="41.0" fill="#FEFFFF" transform="matrix(1.00, 0.00, -0.00, -1.00, 120.6, 14.7)">x</text><text xml:space="preserve" font-family="Helvetica-Light,Helvetica" font-size="41.0" fill="#FEFFFF" transform="matrix(1.00, 0.00, -0.00, -1.00, 141.1, 14.7)">e</text><text xml:space="preserve" font-family="Helvetica-Light,Helvetica" font-size="41.0" fill="#FEFFFF" transform="matrix(1.00, 0.00, -0.00, -1.00, 163.9, 14.7)">t</text><text xml:space="preserve" font-family="Helvetica-Light,Helvetica" font-size="41.0" fill="#FEFFFF" transform="matrix(1.00, 0.00, -0.00, -1.00, 175.3, 14.7)">n</text><text xml:space="preserve" font-family="Helvetica-Light,Helvetica" font-size="41.0" fill="#FEFFFF" transform="matrix(1.00, 0.00, -0.00, -1.00, 198.1, 14.7)">e</text><text xml:space="preserve" font-family="Helvetica-Light,Helvetica" font-size="41.0" fill="#FEFFFF" transform="matrix(1.00, 0.00, -0.00, -1.00, 220.9, 14.7)">m</text><text xml:space="preserve" font-family="Helvetica-Light,Helvetica" font-size="41.0" fill="#FEFFFF" transform="matrix(1.00, 0.00, -0.00, -1.00, 255.1, 14.7)">u</text><text xml:space="preserve" font-family="Helvetica-Light,Helvetica" font-size="41.0" fill="#FEFFFF" transform="matrix(1.00, 0.00, -0.00, -1.00, 277.8, 14.7)">c</text><text xml:space="preserve" font-family="Helvetica-Light,Helvetica" font-size="41.0" fill="#FEFFFF" transform="matrix(1.00, 0.00, -0.00, -1.00, 300.6, 14.7)">o</text><text xml:space="preserve" font-family="Helvetica-Light,Helvetica" font-size="41.0" fill="#FEFFFF" transform="matrix(1.00, 0.00, -0.00, -1.00, 323.4, 14.7)">d</text><text xml:space="preserve" font-family="Helvetica-Light,Helvetica" font-size="41.0" fill="#FEFFFF" transform="matrix(1.00, 0.00, -0.00, -1.00, 348.5, 14.7)"> </text><text xml:space="preserve" font-family="Helvetica-Light,Helvetica" font-size="41.0" fill="#FEFFFF" transform="matrix(1.00, 0.00, -0.00, -1.00, 359.9, 14.7)"> </text><text xml:space="preserve" font-family="Helvetica-Light,Helvetica" font-size="41.0" fill="#FEFFFF" transform="matrix(1.00, 0.00, -0.00, -1.00, 371.3, 14.7)"> </text><text xml:space="preserve" font-family="Helvetica-Light,Helvetica" font-size="41.0" fill="#FEFFFF" transform="matrix(1.00, 0.00, -0.00, -1.00, 382.7, 14.7)"> </text><text xml:space="preserve" font-family="Helvetica-Light,Helvetica" font-size="41.0" fill="#FEFFFF" transform="matrix(1.00, 0.00, -0.00, -1.00, 394.1, 14.7)"> </text><text xml:space="preserve" font-family="Helvetica-Light,Helvetica" font-size="41.0" fill="#FEFFFF" transform="matrix(1.00, 0.00, -0.00, -1.00, 405.5, 14.7)"> </text><text xml:space="preserve" font-family="Helvetica-Light,Helvetica" font-size="41.0" fill="#FEFFFF" transform="matrix(1.00, 0.00, -0.00, -1.00, 416.9, 14.7)"> </text><text xml:space="preserve" font-family="Helvetica-Light,Helvetica" font-size="41.0" fill="#FEFFFF" transform="matrix(1.00, 0.00, -0.00, -1.00, 428.3, 14.7)"> </text><text xml:space="preserve" font-family="Helvetica-Light,Helvetica" font-size="41.0" fill="#FEFFFF" transform="matrix(1.00, 0.00, -0.00, -1.00, 439.7, 14.7)"> </text><text xml:space="preserve" font-family="Helvetica-Light,Helvetica" font-size="41.0" fill="#FEFFFF" transform="matrix(1.00, 0.00, -0.00, -1.00, 451.1, 14.7)"> </text><text xml:space="preserve" font-family="Helvetica-Light,Helvetica" font-size="41.0" fill="#FEFFFF" transform="matrix(1.00, 0.00, -0.00, -1.00, 462.5, 14.7)"> </text><text xml:space="preserve" font-family="Helvetica-Light,Helvetica" font-size="41.0" fill="#FEFFFF" transform="matrix(1.00, 0.00, -0.00, -1.00, 473.9, 14.7)"> </text><text xml:space="preserve" font-family="Helvetica-Light,Helvetica" font-size="41.0" fill="#FEFFFF" transform="matrix(1.00, 0.00, -0.00, -1.00, 485.3, 14.7)"> </text><text xml:space="preserve" font-family="Helvetica-Light,Helvetica" font-size="41.0" fill="#FEFFFF" transform="matrix(1.00, 0.00, -0.00, -1.00, 496.7, 14.7)"> </text><text xml:space="preserve" font-family="Helvetica-Light,Helvetica" font-size="41.0" fill="#FEFFFF" transform="matrix(1.00, 0.00, -0.00, -1.00, 508.1, 14.7)"> </text><text xml:space="preserve" font-family="Helvetica-Light,Helvetica" font-size="41.0" fill="#FEFFFF" transform="matrix(1.00, 0.00, -0.00, -1.00, 519.5, 14.7)"> </text><text xml:space="preserve" font-family="Helvetica-Light,Helvetica" font-size="41.0" fill="#FEFFFF" transform="matrix(1.00, 0.00, -0.00, -1.00, 530.9, 14.7)"> </text><text xml:space="preserve" font-family="Helvetica-Light,Helvetica" font-size="41.0" fill="#FEFFFF" transform="matrix(1.00, 0.00, -0.00, -1.00, 542.3, 14.7)"> </text><text xml:space="preserve" font-family="Helvetica-Light,Helvetica" font-size="41.0" fill="#FEFFFF" transform="matrix(1.00, 0.00, -0.00, -1.00, 553.7, 14.7)"> </text></g></g><image xlink:href="CAF2837DCF9A6934F3A5309E481E7AA1.png" width="325.00" height="43.00" transform="matrix(1.00, 0.00, -0.00, -1.00, 605.0, 46.0)"></image><g><clipPath id="clip0x600004ea0b40"><path d="M 592.9 -8.3 L 942.0 -8.3 L 942.0 65.2 L 592.9 65.2 Z M 592.9 -8.3 "></path></clipPath><g clip-path="url(#clip0x600004ea0b40)"><text xml:space="preserve" font-family="Helvetica-Light,Helvetica" font-size="41.0" fill="#FEFFFF" transform="matrix(1.00, 0.00, -0.00, -1.00, 604.3, 14.7)">d</text><text xml:space="preserve" font-family="Helvetica-Light,Helvetica" font-size="41.0" fill="#FEFFFF" transform="matrix(1.00, 0.00, -0.00, -1.00, 629.3, 14.7)">o</text><text xml:space="preserve" font-family="Helvetica-Light,Helvetica" font-size="41.0" fill="#FEFFFF" transform="matrix(1.00, 0.00, -0.00, -1.00, 652.1, 14.7)">c</text><text xml:space="preserve" font-family="Helvetica-Light,Helvetica" font-size="41.0" fill="#FEFFFF" transform="matrix(1.00, 0.00, -0.00, -1.00, 674.9, 14.7)">u</text><text xml:space="preserve" font-family="Helvetica-Light,Helvetica" font-size="41.0" fill="#FEFFFF" transform="matrix(1.00, 0.00, -0.00, -1.00, 697.7, 14.7)">m</text><text xml:space="preserve" font-family="Helvetica-Light,Helvetica" font-size="41.0" fill="#FEFFFF" transform="matrix(1.00, 0.00, -0.00, -1.00, 731.9, 14.7)">e</text><text xml:space="preserve" font-family="Helvetica-Light,Helvetica" font-size="41.0" fill="#FEFFFF" transform="matrix(1.00, 0.00, -0.00, -1.00, 754.7, 14.7)">n</text><text xml:space="preserve" font-family="Helvetica-Light,Helvetica" font-size="41.0" fill="#FEFFFF" transform="matrix(1.00, 0.00, -0.00, -1.00, 777.5, 14.7)">t</text><text xml:space="preserve" font-family="Helvetica-Light,Helvetica" font-size="41.0" fill="#FEFFFF" transform="matrix(1.00, 0.00, -0.00, -1.00, 788.9, 14.7)">e</text><text xml:space="preserve" font-family="Helvetica-Light,Helvetica" font-size="41.0" fill="#FEFFFF" transform="matrix(1.00, 0.00, -0.00, -1.00, 811.7, 14.7)">x</text><text xml:space="preserve" font-family="Helvetica-Light,Helvetica" font-size="41.0" fill="#FEFFFF" transform="matrix(1.00, 0.00, -0.00, -1.00, 832.2, 14.7)">e</text><text xml:space="preserve" font-family="Helvetica-Light,Helvetica" font-size="41.0" fill="#FEFFFF" transform="matrix(1.00, 0.00, -0.00, -1.00, 855.0, 14.7)">.</text><text xml:space="preserve" font-family="Helvetica-Light,Helvetica" font-size="41.0" fill="#FEFFFF" transform="matrix(1.00, 0.00, -0.00, -1.00, 866.4, 14.7)">p</text><text xml:space="preserve" font-family="Helvetica-Light,Helvetica" font-size="41.0" fill="#FEFFFF" transform="matrix(1.00, 0.00, -0.00, -1.00, 891.4, 14.7)">d</text><text xml:space="preserve" font-family="Helvetica-Light,Helvetica" font-size="41.0" fill="#FEFFFF" transform="matrix(1.00, 0.00, -0.00, -1.00, 916.5, 14.7)">f</text></g></g><g><clipPath id="clip0x600004ea13e0"><path d="M 360.5 21.0 L 585.6 21.0 L 585.6 32.6 L 360.5 32.6 Z M 360.5 21.0 "></path></clipPath><g clip-path="url(#clip0x600004ea13e0)"><path d="M -0.5 -0.2 L 213.5 -0.2 L 214.5 -0.2 " fill="none" stroke="#FEFFFE" stroke-width="2.00" transform="matrix(1.00, 0.00, 0.00, -1.00, 361.5, 26.8)"></path><path d="M 575.0 22.2 L 584.6 27.0 L 575.0 31.8 Z M 575.0 22.2 " fill="#FEFFFE"></path></g></g></g></svg>