<?xml version="1.0" encoding="UTF-8" standalone="no"?><svg xmlns="http://www.w3.org/2000/svg" xmlns:xlink="http://www.w3.org/1999/xlink" clip-rule="evenodd" stroke-miterlimit="10" viewBox="0 0 220 67"><desc>SVG generated by Keynote</desc><defs><linearGradient id="gradSh1.41" x1="0.0" y1="0.0" x2="100.0" y2="0.0" gradientUnits="userSpaceOnUse" gradientTransform="matrix(0.00, -0.55, -2.07, 0.00, 109.5, 61.0)"><stop offset="0.00000" stop-color="#0066C1"></stop><stop offset="0.00147" stop-color="#0065C0"></stop><stop offset="0.05352" stop-color="#0164BE"></stop><stop offset="0.06378" stop-color="#0163BE"></stop><stop offset="0.15982" stop-color="#0260B9"></stop><stop offset="0.17669" stop-color="#0260B8"></stop><stop offset="0.37243" stop-color="#045AB0"></stop><stop offset="0.37390" stop-color="#045AAF"></stop><stop offset="0.79692" stop-color="#084C9C"></stop><stop offset="0.80938" stop-color="#084B9C"></stop><stop offset="1.00000" stop-color="#094593"></stop></linearGradient></defs><g transform="matrix(1.00, 0.00, -0.00, -1.00, 0.0, 67.0)"><image xlink:href="../../6B1494E1-EF6A-4B3B-8B07-D0BFEC0173C7/assets/8140A12C7ABCD1EBEA82B98B24030AB3.png" width="217.00" height="64.00" transform="matrix(1.00, 0.00, -0.00, -1.01, 1.2, 65.8)" opacity="0.80"></image><g><clipPath id="clip0x6100032ae640"><path d="M 7.0 60.0 L 212.0 60.0 L 212.0 7.0 L 7.0 7.0 Z M 7.2 59.8 "></path></clipPath><g clip-path="url(#clip0x6100032ae640)"><path d="M 7.0 60.0 L 212.0 60.0 L 212.0 7.0 L 7.0 7.0 Z M 7.2 59.8 " fill="url(#gradSh1.41)"></path></g></g><image xlink:href="../../6B1494E1-EF6A-4B3B-8B07-D0BFEC0173C7/assets/F7D10963A48744FDC4863963E0B17030.png" width="159.00" height="24.00" transform="matrix(1.00, 0.00, -0.00, -1.00, 32.0, 44.0)"></image><g><clipPath id="clip0x6100038ae5e0"><path d="M 4.5 7.3 L 217.7 7.3 L 217.7 59.8 L 4.5 59.8 Z M 4.5 7.3 "></path></clipPath><g clip-path="url(#clip0x6100038ae5e0)"><text xml:space="preserve" font-family="Helvetica-Light,Helvetica" font-size="24.0" fill="#FEFFFF" transform="matrix(1.00, 0.00, -0.00, -1.00, 31.5, 24.3)">l</text><text xml:space="preserve" font-family="Helvetica-Light,Helvetica" font-size="24.0" fill="#FEFFFF" transform="matrix(1.00, 0.00, -0.00, -1.00, 36.9, 24.3)">o</text><text xml:space="preserve" font-family="Helvetica-Light,Helvetica" font-size="24.0" fill="#FEFFFF" transform="matrix(1.00, 0.00, -0.00, -1.00, 50.2, 24.3)">a</text><text xml:space="preserve" font-family="Helvetica-Light,Helvetica" font-size="24.0" fill="#FEFFFF" transform="matrix(1.00, 0.00, -0.00, -1.00, 63.6, 24.3)">d</text><text xml:space="preserve" font-family="Helvetica-Light,Helvetica" font-size="24.0" fill="#FEFFFF" transform="matrix(1.00, 0.00, -0.00, -1.00, 78.2, 24.3)">E</text><text xml:space="preserve" font-family="Helvetica-Light,Helvetica" font-size="24.0" fill="#FEFFFF" transform="matrix(1.00, 0.00, -0.00, -1.00, 92.9, 24.3)">v</text><text xml:space="preserve" font-family="Helvetica-Light,Helvetica" font-size="24.0" fill="#FEFFFF" transform="matrix(1.00, 0.00, -0.00, -1.00, 104.9, 24.3)">e</text><text xml:space="preserve" font-family="Helvetica-Light,Helvetica" font-size="24.0" fill="#FEFFFF" transform="matrix(1.00, 0.00, -0.00, -1.00, 118.2, 24.3)">n</text><text xml:space="preserve" font-family="Helvetica-Light,Helvetica" font-size="24.0" fill="#FEFFFF" transform="matrix(1.00, 0.00, -0.00, -1.00, 131.6, 24.3)">t</text><text xml:space="preserve" font-family="Helvetica-Light,Helvetica" font-size="24.0" fill="#FEFFFF" transform="matrix(1.00, 0.00, -0.00, -1.00, 138.2, 24.3)">S</text><text xml:space="preserve" font-family="Helvetica-Light,Helvetica" font-size="24.0" fill="#FEFFFF" transform="matrix(1.00, 0.00, -0.00, -1.00, 152.9, 24.3)">t</text><text xml:space="preserve" font-family="Helvetica-Light,Helvetica" font-size="24.0" fill="#FEFFFF" transform="matrix(1.00, 0.00, -0.00, -1.00, 159.6, 24.3)">a</text><text xml:space="preserve" font-family="Helvetica-Light,Helvetica" font-size="24.0" fill="#FEFFFF" transform="matrix(1.00, 0.00, -0.00, -1.00, 172.9, 24.3)">r</text><text xml:space="preserve" font-family="Helvetica-Light,Helvetica" font-size="24.0" fill="#FEFFFF" transform="matrix(1.00, 0.00, -0.00, -1.00, 181.3, 24.3)">t</text><text xml:space="preserve" font-family="Helvetica-Light,Helvetica" font-size="24.0" fill="#FEFFFF" transform="matrix(1.00, 0.00, -0.00, -1.00, 188.0, 24.3)"> </text></g></g></g></svg>