<?xml version="1.0" encoding="UTF-8" standalone="no"?><svg xmlns="http://www.w3.org/2000/svg" xmlns:xlink="http://www.w3.org/1999/xlink" clip-rule="evenodd" stroke-miterlimit="10" viewBox="0 0 220 67"><desc>SVG generated by Keynote</desc><defs><linearGradient id="gradSh1.35" x1="0.0" y1="0.0" x2="100.0" y2="0.0" gradientUnits="userSpaceOnUse" gradientTransform="matrix(0.00, -0.55, -2.07, 0.00, 110.5, 61.0)"><stop offset="0.00000" stop-color="#0066C1"></stop><stop offset="0.00147" stop-color="#0065C0"></stop><stop offset="0.05352" stop-color="#0164BE"></stop><stop offset="0.06378" stop-color="#0163BE"></stop><stop offset="0.15982" stop-color="#0260B9"></stop><stop offset="0.17669" stop-color="#0260B8"></stop><stop offset="0.37243" stop-color="#045AB0"></stop><stop offset="0.37390" stop-color="#045AAF"></stop><stop offset="0.79692" stop-color="#084C9C"></stop><stop offset="0.80938" stop-color="#084B9C"></stop><stop offset="1.00000" stop-color="#094593"></stop></linearGradient></defs><g transform="matrix(1.00, 0.00, -0.00, -1.00, 0.0, 67.0)"><image xlink:href="../../6B1494E1-EF6A-4B3B-8B07-D0BFEC0173C7/assets/E07E99DAA7E88E5A85AE425637C7BB33.png" width="217.00" height="64.00" transform="matrix(1.00, 0.00, -0.00, -1.01, 1.7, 65.6)" opacity="0.80"></image><g><clipPath id="clip0x618001cba160"><path d="M 8.0 60.0 L 213.0 60.0 L 213.0 7.0 L 8.0 7.0 Z M 7.7 59.6 "></path></clipPath><g clip-path="url(#clip0x618001cba160)"><path d="M 8.0 60.0 L 213.0 60.0 L 213.0 7.0 L 8.0 7.0 Z M 7.7 59.6 " fill="url(#gradSh1.35)"></path></g></g><image xlink:href="../../6B1494E1-EF6A-4B3B-8B07-D0BFEC0173C7/assets/416B0B4EDB52430BFA5FA3CD78D0B73E.png" width="138.00" height="27.00" transform="matrix(1.00, 0.00, -0.00, -1.00, 42.0, 43.0)"></image><g><clipPath id="clip0x600004caa320"><path d="M 5.0 7.2 L 218.2 7.2 L 218.2 59.6 L 5.0 59.6 Z M 5.0 7.2 "></path></clipPath><g clip-path="url(#clip0x600004caa320)"><text xml:space="preserve" font-family="Helvetica-Light,Helvetica" font-size="24.0" fill="#FEFFFF" transform="matrix(1.00, 0.00, -0.00, -1.00, 42.2, 24.2)">d</text><text xml:space="preserve" font-family="Helvetica-Light,Helvetica" font-size="24.0" fill="#FEFFFF" transform="matrix(1.00, 0.00, -0.00, -1.00, 56.9, 24.2)">o</text><text xml:space="preserve" font-family="Helvetica-Light,Helvetica" font-size="24.0" fill="#FEFFFF" transform="matrix(1.00, 0.00, -0.00, -1.00, 70.2, 24.2)">m</text><text xml:space="preserve" font-family="Helvetica-Light,Helvetica" font-size="24.0" fill="#FEFFFF" transform="matrix(1.00, 0.00, -0.00, -1.00, 90.2, 24.2)">L</text><text xml:space="preserve" font-family="Helvetica-Light,Helvetica" font-size="24.0" fill="#FEFFFF" transform="matrix(1.00, 0.00, -0.00, -1.00, 103.6, 24.2)">o</text><text xml:space="preserve" font-family="Helvetica-Light,Helvetica" font-size="24.0" fill="#FEFFFF" transform="matrix(1.00, 0.00, -0.00, -1.00, 116.9, 24.2)">a</text><text xml:space="preserve" font-family="Helvetica-Light,Helvetica" font-size="24.0" fill="#FEFFFF" transform="matrix(1.00, 0.00, -0.00, -1.00, 130.3, 24.2)">d</text><text xml:space="preserve" font-family="Helvetica-Light,Helvetica" font-size="24.0" fill="#FEFFFF" transform="matrix(1.00, 0.00, -0.00, -1.00, 144.9, 24.2)">i</text><text xml:space="preserve" font-family="Helvetica-Light,Helvetica" font-size="24.0" fill="#FEFFFF" transform="matrix(1.00, 0.00, -0.00, -1.00, 150.3, 24.2)">n</text><text xml:space="preserve" font-family="Helvetica-Light,Helvetica" font-size="24.0" fill="#FEFFFF" transform="matrix(1.00, 0.00, -0.00, -1.00, 163.6, 24.2)">g</text><text xml:space="preserve" font-family="Helvetica-Light,Helvetica" font-size="24.0" fill="#FEFFFF" transform="matrix(1.00, 0.00, -0.00, -1.00, 178.3, 24.2)"> </text></g></g></g></svg>