<?xml version="1.0" encoding="UTF-8" standalone="no"?><svg xmlns="http://www.w3.org/2000/svg" xmlns:xlink="http://www.w3.org/1999/xlink" clip-rule="evenodd" stroke-miterlimit="10" viewBox="0 0 220 68"><desc>SVG generated by Keynote</desc><defs><linearGradient id="gradSh1.39" x1="0.0" y1="0.0" x2="100.0" y2="0.0" gradientUnits="userSpaceOnUse" gradientTransform="matrix(0.00, -0.54, -2.07, 0.00, 110.5, 61.0)"><stop offset="0.00000" stop-color="#0066C1"></stop><stop offset="0.00147" stop-color="#0065C0"></stop><stop offset="0.05352" stop-color="#0164BE"></stop><stop offset="0.06378" stop-color="#0163BE"></stop><stop offset="0.15982" stop-color="#0260B9"></stop><stop offset="0.17669" stop-color="#0260B8"></stop><stop offset="0.37243" stop-color="#045AB0"></stop><stop offset="0.37390" stop-color="#045AAF"></stop><stop offset="0.79692" stop-color="#084C9C"></stop><stop offset="0.80938" stop-color="#084B9C"></stop><stop offset="1.00000" stop-color="#094593"></stop></linearGradient></defs><g transform="matrix(1.00, 0.00, -0.00, -1.00, 0.0, 68.0)"><image xlink:href="../../6B1494E1-EF6A-4B3B-8B07-D0BFEC0173C7/assets/0CA02294AAB1E649E5C5F3DD6BA1188A.png" width="217.00" height="64.00" transform="matrix(1.00, 0.00, -0.00, -1.01, 1.7, 66.1)" opacity="0.80"></image><g><clipPath id="clip0x6080028a7740"><path d="M 8.0 60.0 L 213.0 60.0 L 213.0 8.0 L 8.0 8.0 Z M 7.7 60.1 "></path></clipPath><g clip-path="url(#clip0x6080028a7740)"><path d="M 8.0 60.0 L 213.0 60.0 L 213.0 8.0 L 8.0 8.0 Z M 7.7 60.1 " fill="url(#gradSh1.39)"></path></g></g><image xlink:href="../../6B1494E1-EF6A-4B3B-8B07-D0BFEC0173C7/assets/49ACC12C6EDC468FEE1BAB069EFB21C7.png" width="163.00" height="22.00" transform="matrix(1.00, 0.00, -0.00, -1.00, 30.0, 43.0)"></image><g><clipPath id="clip0x6080032a76e0"><path d="M 5.0 7.7 L 218.2 7.7 L 218.2 60.1 L 5.0 60.1 Z M 5.0 7.7 "></path></clipPath><g clip-path="url(#clip0x6080032a76e0)"><text xml:space="preserve" font-family="Helvetica-Light,Helvetica" font-size="24.0" fill="#FEFFFF" transform="matrix(1.00, 0.00, -0.00, -1.00, 30.2, 24.7)">d</text><text xml:space="preserve" font-family="Helvetica-Light,Helvetica" font-size="24.0" fill="#FEFFFF" transform="matrix(1.00, 0.00, -0.00, -1.00, 44.9, 24.7)">o</text><text xml:space="preserve" font-family="Helvetica-Light,Helvetica" font-size="24.0" fill="#FEFFFF" transform="matrix(1.00, 0.00, -0.00, -1.00, 58.2, 24.7)">m</text><text xml:space="preserve" font-family="Helvetica-Light,Helvetica" font-size="24.0" fill="#FEFFFF" transform="matrix(1.00, 0.00, -0.00, -1.00, 78.2, 24.7)">I</text><text xml:space="preserve" font-family="Helvetica-Light,Helvetica" font-size="24.0" fill="#FEFFFF" transform="matrix(1.00, 0.00, -0.00, -1.00, 84.9, 24.7)">n</text><text xml:space="preserve" font-family="Helvetica-Light,Helvetica" font-size="24.0" fill="#FEFFFF" transform="matrix(1.00, 0.00, -0.00, -1.00, 98.2, 24.7)">t</text><text xml:space="preserve" font-family="Helvetica-Light,Helvetica" font-size="24.0" fill="#FEFFFF" transform="matrix(1.00, 0.00, -0.00, -1.00, 104.9, 24.7)">e</text><text xml:space="preserve" font-family="Helvetica-Light,Helvetica" font-size="24.0" fill="#FEFFFF" transform="matrix(1.00, 0.00, -0.00, -1.00, 118.3, 24.7)">r</text><text xml:space="preserve" font-family="Helvetica-Light,Helvetica" font-size="24.0" fill="#FEFFFF" transform="matrix(1.00, 0.00, -0.00, -1.00, 126.2, 24.7)">a</text><text xml:space="preserve" font-family="Helvetica-Light,Helvetica" font-size="24.0" fill="#FEFFFF" transform="matrix(1.00, 0.00, -0.00, -1.00, 139.6, 24.7)">c</text><text xml:space="preserve" font-family="Helvetica-Light,Helvetica" font-size="24.0" fill="#FEFFFF" transform="matrix(1.00, 0.00, -0.00, -1.00, 152.9, 24.7)">t</text><text xml:space="preserve" font-family="Helvetica-Light,Helvetica" font-size="24.0" fill="#FEFFFF" transform="matrix(1.00, 0.00, -0.00, -1.00, 159.6, 24.7)">i</text><text xml:space="preserve" font-family="Helvetica-Light,Helvetica" font-size="24.0" fill="#FEFFFF" transform="matrix(1.00, 0.00, -0.00, -1.00, 164.9, 24.7)">v</text><text xml:space="preserve" font-family="Helvetica-Light,Helvetica" font-size="24.0" fill="#FEFFFF" transform="matrix(1.00, 0.00, -0.00, -1.00, 176.9, 24.7)">e</text><text xml:space="preserve" font-family="Helvetica-Light,Helvetica" font-size="24.0" fill="#FEFFFF" transform="matrix(1.00, 0.00, -0.00, -1.00, 190.3, 24.7)"> </text></g></g></g></svg>